<svg width="65" height="64" viewBox="0 0 65 64" fill="none" xmlns="http://www.w3.org/2000/svg">
<path d="M31.3813 28.1316V41.2256C32.5043 41.3674 34.0203 41.4793 36.0412 41.4793C39.7223 41.4793 42.7231 40.6088 44.6084 38.8938C46.4092 37.2634 47.5583 34.7364 47.5583 31.3687C47.5583 28.1378 46.4328 25.8881 44.6084 24.4008C42.8698 22.9395 40.4261 22.207 36.8868 22.207L31.3813 22.2543V24.9492L37.1915 24.9069C41.518 24.9069 43.9344 27.2934 43.9033 31.4782C43.9033 36.2835 41.2357 38.7533 36.745 38.7259C36.0412 38.7259 35.3149 38.7259 34.8336 38.6426V28.1304L31.3813 28.1316Z" fill="black" stroke="black" stroke-width="0.00051463"/>
<path d="M23.032 38.7445C21.2275 38.7445 19.4578 38.0183 18.7303 37.5805L17.917 40.2854C18.9355 40.9519 20.9116 41.5887 23.2073 41.5887C27.8833 41.5887 30.5558 39.0654 30.5558 35.8668C30.5558 33.3099 28.6979 31.5664 26.4022 31.161V31.1025C28.724 30.2855 29.8855 28.6626 29.8855 26.684C29.8855 24.2129 27.8833 22.064 23.9895 22.064C21.7237 22.064 19.6294 22.7629 18.5562 23.519L19.3708 26.1032C20.1542 25.5797 21.6926 24.9093 23.2309 24.9093C25.2953 24.9093 26.2591 25.9863 26.2591 27.2672C26.2591 29.1563 24.1686 29.9112 22.5084 29.9112H20.9129V32.5277H22.5693C24.7432 32.5277 26.8337 33.4865 26.8337 35.7213C26.8698 37.2062 25.7617 38.7445 23.032 38.7445Z" fill="black" stroke="black" stroke-width="0.00051463"/>
<path d="M11.4837 13.6934L21.8492 17.0201C21.9226 17.1245 22.0395 17.1904 22.1675 17.1904C22.2073 17.1904 22.2484 17.1842 22.2894 17.1693L22.3031 17.1656L32.1488 20.3256C32.1861 20.338 32.2271 20.3442 32.2669 20.3442C32.3055 20.3442 32.3453 20.338 32.3838 20.3256L41.8353 17.2937C41.844 17.2937 41.8514 17.2974 41.8601 17.2974C41.9484 17.2974 42.0355 17.2651 42.1014 17.2091L62.8797 10.5396C63.0401 10.4886 63.1483 10.3394 63.1483 10.1727C63.1483 10.0049 63.0401 9.85562 62.8797 9.80464L32.3813 0.0186542C32.3055 -0.00621806 32.2234 -0.00621806 32.1475 0.0186542L1.65168 9.80339C1.49249 9.85438 1.38306 10.0036 1.38306 10.1715C1.38306 10.3394 1.49249 10.4874 1.65168 10.5384L11.4837 13.6934ZM22.2969 16.3523L12.8392 13.3178L21.5594 10.3929L30.7348 13.5243L22.2969 16.3523ZM22.7645 9.98869L32.1339 6.84857L41.4137 9.94268L31.9386 13.1201L22.7645 9.98869ZM32.2657 19.5521L23.538 16.7515L31.9386 13.9359L40.5817 16.8845L32.2657 19.5521ZM41.8129 16.4878L33.1437 13.5305L42.6337 10.3481L51.6138 13.3415L41.8129 16.4878ZM52.1262 7.16445L61.4955 10.1715L52.8176 12.9559C52.7865 12.9311 52.7517 12.9087 52.7131 12.8963L43.8499 9.94143L52.115 7.16942C52.1187 7.16942 52.1224 7.16569 52.1262 7.16445ZM50.8875 6.76649L42.6324 9.53477L33.3513 6.44067L41.4298 3.73208L50.8875 6.76649ZM32.2657 0.790937L40.1887 3.33288L32.1326 6.03401L24.1847 3.38387L32.2657 0.790937ZM22.951 3.77934C22.9622 3.78431 22.9722 3.79426 22.9834 3.79923L30.9151 6.44315L21.5594 9.57954L13.4747 6.81997L22.951 3.77934ZM12.2883 7.20176C12.3244 7.2316 12.3666 7.25896 12.4164 7.27637L20.3544 9.98372L11.5981 12.9199L3.03333 10.1727L12.2883 7.20176Z" fill="black"/>
<path d="M11.4837 13.6934L21.8492 17.0201C21.9226 17.1245 22.0395 17.1904 22.1675 17.1904C22.2073 17.1904 22.2484 17.1842 22.2894 17.1693L22.3031 17.1656L32.1488 20.3256C32.1861 20.338 32.2271 20.3442 32.2669 20.3442C32.3055 20.3442 32.3453 20.338 32.3838 20.3256L41.8353 17.2937C41.844 17.2937 41.8514 17.2974 41.8601 17.2974C41.9484 17.2974 42.0355 17.2651 42.1014 17.2091L62.8797 10.5396C63.0401 10.4886 63.1483 10.3394 63.1483 10.1727C63.1483 10.0049 63.0401 9.85562 62.8797 9.80464L32.3813 0.0186542C32.3055 -0.00621806 32.2234 -0.00621806 32.1475 0.0186542L1.65168 9.80339C1.49249 9.85438 1.38306 10.0036 1.38306 10.1715C1.38306 10.3394 1.49249 10.4874 1.65168 10.5384L11.4837 13.6934ZM11.4837 13.6934V13.6934ZM22.2969 16.3523L12.8392 13.3178L21.5594 10.3929L30.7348 13.5243L22.2969 16.3523ZM22.7645 9.98869L32.1339 6.84857L41.4137 9.94268L31.9386 13.1201L22.7645 9.98869ZM32.2657 19.5521L23.538 16.7515L31.9386 13.9359L40.5817 16.8845L32.2657 19.5521ZM41.8129 16.4878L33.1437 13.5305L42.6337 10.3481L51.6138 13.3415L41.8129 16.4878ZM52.1262 7.16445L61.4955 10.1715L52.8176 12.9559C52.7865 12.9311 52.7517 12.9087 52.7131 12.8963L43.8499 9.94143L52.115 7.16942C52.1187 7.16942 52.1224 7.16569 52.1262 7.16445ZM50.8875 6.76649L42.6324 9.53477L33.3513 6.44067L41.4298 3.73208L50.8875 6.76649ZM32.2657 0.790937L40.1887 3.33288L32.1326 6.03401L24.1847 3.38387L32.2657 0.790937ZM22.951 3.77934C22.9622 3.78431 22.9722 3.79426 22.9834 3.79923L30.9151 6.44315L21.5594 9.57954L13.4747 6.81997L22.951 3.77934ZM12.2883 7.20176C12.3244 7.2316 12.3666 7.25896 12.4164 7.27637L20.3544 9.98372L11.5981 12.9199L3.03333 10.1727L12.2883 7.20176Z" stroke="black" stroke-width="0.00051463"/>
<path d="M63.3523 53.4593L32.8577 43.503C32.7794 43.4769 32.696 43.4769 32.6177 43.503L2.12185 53.4593C1.96266 53.5116 1.85571 53.6608 1.85571 53.8275C1.85571 53.9966 1.96515 54.1446 2.12433 54.1956L11.6914 57.266C11.72 57.2797 11.7499 57.2897 11.781 57.2934L32.6189 63.9803C32.6562 63.994 32.6973 64.0002 32.7358 64.0002C32.7756 64.0002 32.8154 63.994 32.854 63.9803L63.3486 54.1956C63.5078 54.1446 63.616 53.9966 63.6172 53.8275C63.6172 53.6596 63.5103 53.5116 63.3523 53.4593ZM41.8552 47.255L51.2594 50.3254L42.8862 53.1659L33.5778 50.0431L41.8043 47.2848C41.8229 47.2786 41.8366 47.2637 41.8552 47.255ZM41.6762 53.5738L32.5306 56.6753L23.1352 53.5427L32.3615 50.4498L41.6762 53.5738ZM32.7358 44.2778L40.6415 46.8595L32.3603 49.6365L24.4472 46.9826L32.7358 44.2778ZM23.2222 47.3843C23.2272 47.3868 23.2322 47.3905 23.2371 47.3918L31.1453 50.0431L21.9164 53.1372L13.8416 50.4461L23.2222 47.3843ZM3.49604 53.8237L12.6254 50.844C12.6428 50.8527 12.654 50.8652 12.6714 50.8701L20.6989 53.5464L11.8631 56.5087L3.49604 53.8237ZM13.1029 56.9079L21.9177 53.9531L31.3206 57.0882L22.7347 60.0007L13.1029 56.9079ZM32.7358 63.2068L23.9696 60.3937L32.5319 57.4899L41.3677 60.4373L32.7358 63.2068ZM42.5467 60.0604C42.5057 60.0194 42.4596 59.9846 42.4012 59.9672L33.7444 57.0807L42.8874 53.9792L51.9857 57.031L42.5467 60.0604ZM53.2281 56.633L44.0925 53.5688L52.3687 50.762C52.3986 50.752 52.4247 50.7321 52.4496 50.7134L61.9756 53.8225L53.2281 56.633Z" fill="black" stroke="black" stroke-width="0.00051463"/>
<path d="M1.85571 13.2618V49.5441C1.85571 49.7568 2.02857 49.9309 2.24123 49.9309C2.45638 49.9309 2.62924 49.758 2.62924 49.5441V13.2618C2.62924 13.0491 2.45638 12.875 2.24123 12.875C2.02857 12.8762 1.85571 13.0491 1.85571 13.2618Z" fill="black" stroke="black" stroke-width="0.00051463"/>
<path d="M12.0359 17.2773V45.5284C12.0359 45.71 12.1826 45.858 12.3654 45.858C12.547 45.858 12.6938 45.7113 12.6938 45.5284V17.2773C12.6938 17.0957 12.547 16.9478 12.3654 16.9478C12.1826 16.9478 12.0359 17.0945 12.0359 17.2773Z" fill="black" stroke="black" stroke-width="0.00051463"/>
<path d="M62.5066 12.9595C62.2927 12.9595 62.1199 13.1323 62.1199 13.3462V49.6286C62.1199 49.8438 62.2927 50.0166 62.5066 50.0166C62.7205 50.0166 62.8946 49.8438 62.8946 49.6286V13.345C62.8934 13.1336 62.7205 12.9595 62.5066 12.9595Z" fill="black" stroke="black" stroke-width="0.00051463"/>
<path d="M52.0579 17.3608V45.6144C52.0579 45.796 52.2046 45.944 52.3887 45.944C52.5702 45.944 52.717 45.796 52.717 45.6144V17.3608C52.717 17.1792 52.5702 17.0312 52.3887 17.0312C52.2046 17.0312 52.0579 17.178 52.0579 17.3608Z" fill="black" stroke="black" stroke-width="0.00051463"/>
</svg>
